<svg width="284" height="285" viewBox="0 0 284 285" fill="none" xmlns="http://www.w3.org/2000/svg">
<path d="M187.44 149.88C187.44 152.73 185.22 155.05 182.42 155.22C182.31 155.24 182.19 155.24 182.08 155.24C179.12 155.24 176.72 152.84 176.72 149.88C176.72 146.92 179.12 144.52 182.08 144.52C182.19 144.52 182.31 144.52 182.42 144.54C185.22 144.71 187.44 147.03 187.44 149.88Z" fill="#309FD9"/>
<path d="M196.64 139.56H180.76C175.06 139.56 170.44 144.18 170.44 149.88C170.44 155.58 175.06 160.19 180.76 160.19H196.64V164.29C196.64 177.35 184.48 187.94 169.47 187.94H99.3001C92.4101 187.94 86.8201 183.08 86.8201 177.08V123.59C86.8201 117.59 92.4101 112.73 99.3001 112.73H184.15C191.05 112.73 196.64 117.59 196.64 123.59V139.56Z" fill="#309FD9"/>
<path d="M182.42 108.22V139.56H180.76C175.06 139.56 170.44 144.18 170.44 149.88C170.44 155.58 175.06 160.19 180.76 160.19H182.42V161.71C182.42 167.71 177.56 172.57 171.56 172.57H97.6901C91.6901 172.57 86.8201 167.71 86.8201 161.71V121.01C86.8201 107.95 97.4101 97.3599 110.47 97.3599H171.56C177.56 97.3599 182.42 102.22 182.42 108.22Z" fill="#D7188D"/>
<path d="M182.42 112.73V139.56H180.76C175.06 139.56 170.44 144.18 170.44 149.88C170.44 155.58 175.06 160.19 180.76 160.19H182.42V161.71C182.42 167.71 177.56 172.57 171.56 172.57H97.6901C91.6901 172.57 86.8201 167.71 86.8201 161.71V123.59C86.8201 117.59 92.4101 112.73 99.3001 112.73H182.42Z" fill="#7C2B8B"/>
</svg>
