<svg width="284" height="284" viewBox="0 0 284 284" fill="none" xmlns="http://www.w3.org/2000/svg">
<path d="M182.11 121.51C182.11 124.02 180.16 126.06 177.69 126.21C177.59 126.23 177.49 126.23 177.39 126.23C174.79 126.23 172.67 124.12 172.67 121.51C172.67 118.91 174.78 116.79 177.39 116.79C177.49 116.79 177.59 116.79 177.69 116.81C180.16 116.96 182.11 119 182.11 121.51Z" fill="#309FD9"/>
<path d="M190.21 112.43H176.24C171.23 112.43 167.16 116.49 167.16 121.51C167.16 126.52 171.22 130.58 176.24 130.58H190.21V134.19C190.21 145.68 179.51 155 166.31 155H104.58C98.5201 155 93.6001 150.72 93.6001 145.45V98.3801C93.6001 93.1001 98.5201 88.8301 104.58 88.8301H179.22C185.29 88.8301 190.21 93.1101 190.21 98.3801V112.43Z" fill="#309FD9"/>
<path d="M177.7 84.8601V112.43H176.24C171.23 112.43 167.16 116.49 167.16 121.51C167.16 126.52 171.22 130.58 176.24 130.58H177.7V131.92C177.7 137.2 173.42 141.47 168.15 141.47H103.17C97.8901 141.47 93.6101 137.19 93.6101 131.92V96.1201C93.6101 84.6301 102.93 75.3101 114.42 75.3101H168.16C173.42 75.3001 177.7 79.5801 177.7 84.8601Z" fill="#D7188D"/>
<path d="M177.7 88.8203V112.42H176.24C171.23 112.42 167.16 116.48 167.16 121.5C167.16 126.51 171.22 130.57 176.24 130.57H177.7V131.91C177.7 137.19 173.42 141.46 168.15 141.46H103.17C97.8901 141.46 93.6101 137.18 93.6101 131.91V98.3803C93.6101 93.1003 98.5301 88.8303 104.59 88.8303H177.7V88.8203Z" fill="#7C2B8B"/>
<path d="M52.16 200.08C52.74 194.38 53.09 188.12 53.21 181.27L45.73 181.46L45.82 179.51C45.87 178.47 45.9 177.32 45.93 176.08C49.26 176.1 53.13 176.12 57.56 176.12L61.9 176.1H66.12L68.4 176.08L68.29 177.8C68.24 178.72 68.21 179.49 68.19 180.09C68.17 180.69 68.16 181.15 68.16 181.46C65.65 181.33 63.59 181.27 61.96 181.27H60.73C60.55 183.34 60.42 185.25 60.32 187.01C60.19 189.52 60.09 191.97 60.02 194.34C59.95 196.71 59.91 198.62 59.91 200.09C57.99 200.07 56.75 200.05 56.19 200.05C55.7 200.05 54.35 200.06 52.16 200.08Z" fill="#010101"/>
<path d="M69.4399 200.08L69.9799 192.28L70.1599 187.8C70.1699 186.99 70.1799 186.17 70.1799 185.32C70.1799 184.46 70.1699 183.4 70.1399 182.14C71.5599 182.16 72.6799 182.18 73.5199 182.18C74.4899 182.18 75.6099 182.17 76.8799 182.14L76.8099 184.13C77.2699 183.61 77.6399 183.23 77.9399 182.98C78.2299 182.73 78.5699 182.5 78.9399 182.29C79.3099 182.08 79.7099 181.93 80.1199 181.83C80.5299 181.73 80.9599 181.68 81.3999 181.68C81.8199 181.68 82.2899 181.74 82.8099 181.86C82.8199 183.14 82.8499 184.19 82.8999 185.02L83.0199 187.73C82.3799 187.54 81.7699 187.45 81.2099 187.45C80.5099 187.45 79.8999 187.55 79.3899 187.76C78.8799 187.97 78.4299 188.28 78.0399 188.69C77.6499 189.11 77.3299 189.62 77.0999 190.25C76.8699 190.87 76.6999 191.86 76.6099 193.2C76.5199 194.55 76.4699 196.09 76.4699 197.82C76.4699 198.43 76.4899 199.19 76.5399 200.09C75.3999 200.07 74.2599 200.05 73.1099 200.05C71.9599 200.05 70.7399 200.06 69.4399 200.08Z" fill="#010101"/>
<path d="M86.5801 187.25C86.8001 186.09 86.9401 185.29 87.0001 184.85C87.0601 184.41 87.1501 183.72 87.2801 182.78C90.6601 182.04 93.5601 181.67 95.9801 181.67C97.3601 181.67 98.6301 181.83 99.7801 182.14C100.93 182.45 101.83 182.95 102.47 183.64C103.11 184.33 103.44 185.32 103.44 186.61C103.44 187.27 103.35 188.74 103.18 191.04C103 193.34 102.87 196.35 102.78 200.08C101.63 200.06 100.49 200.04 99.3501 200.04C98.2501 200.04 97.0801 200.05 95.8301 200.08C95.9901 198.79 96.1701 196.13 96.3601 192.1C95.9201 192.31 95.5701 192.46 95.3201 192.56C95.0701 192.66 94.6301 192.79 94.0001 192.98C93.3701 193.17 92.8701 193.33 92.5201 193.45C92.1601 193.58 91.8501 193.74 91.5901 193.94C91.3301 194.14 91.1401 194.34 91.0301 194.56C90.9201 194.78 90.8601 195.01 90.8601 195.26C90.8601 195.66 91.0201 196 91.3301 196.28C91.6401 196.56 92.1501 196.7 92.8401 196.7C93.0901 196.7 93.3501 196.68 93.6301 196.64C93.9101 196.6 94.3001 196.5 94.7901 196.33C94.4501 197.23 94.0501 198.55 93.5801 200.29C92.5701 200.45 91.6201 200.54 90.7101 200.54C89.2601 200.54 88.0501 200.34 87.0801 199.93C86.1101 199.52 85.3701 198.87 84.8501 197.97C84.3301 197.07 84.0701 196.17 84.0701 195.26C84.0701 194.71 84.1701 194.17 84.3601 193.64C84.5501 193.11 84.8601 192.6 85.2701 192.09C85.6801 191.59 86.1601 191.16 86.7101 190.8C87.2601 190.44 88.0101 190.11 88.9701 189.79C89.9301 189.47 91.1301 189.17 92.6001 188.89C93.2101 188.77 93.7701 188.65 94.2801 188.51C94.7901 188.37 95.1501 188.26 95.3701 188.16C95.5901 188.06 95.7601 187.94 95.9001 187.81C96.0301 187.68 96.1301 187.53 96.1901 187.39C96.2501 187.25 96.2801 187.09 96.2801 186.92C96.2801 186.47 96.0901 186.13 95.7201 185.89C95.3401 185.65 94.7901 185.53 94.0701 185.53C92.0301 185.54 89.5401 186.11 86.5801 187.25Z" fill="#010101"/>
<path d="M121.7 194.47C121.64 194.94 121.5 195.8 121.28 197.05L120.82 199.86C118.98 200.31 117.18 200.53 115.42 200.53C114.14 200.53 113.02 200.4 112.06 200.14C110.92 199.84 109.9 199.3 109 198.52C108.07 197.72 107.4 196.78 106.98 195.69C106.48 194.41 106.22 192.98 106.22 191.4C106.22 189.95 106.47 188.55 106.96 187.2C107.45 185.85 108.18 184.74 109.14 183.87C110.1 183 111.17 182.41 112.34 182.11C113.51 181.81 114.81 181.66 116.22 181.66C117.05 181.66 117.89 181.7 118.73 181.79C119.57 181.88 120.62 182.07 121.86 182.36L121.9 182.76C121.94 183.18 121.96 183.61 121.98 184.05C122 184.49 122.04 185.18 122.09 186.13L122.2 187.69C120.52 187.1 119.04 186.81 117.75 186.81C116.82 186.81 116.01 186.99 115.32 187.35C114.63 187.71 114.11 188.22 113.77 188.9C113.43 189.58 113.27 190.36 113.27 191.25C113.27 192.15 113.42 192.91 113.72 193.52C114.02 194.13 114.5 194.59 115.15 194.89C115.8 195.19 116.53 195.35 117.31 195.35C117.71 195.35 118.18 195.31 118.73 195.23C119.28 195.15 119.75 195.06 120.15 194.96C120.55 194.86 121.08 194.71 121.7 194.47Z" fill="#010101"/>
<path d="M124.85 200.08C125.01 198.58 125.13 197.36 125.2 196.42C125.29 195.14 125.39 193.54 125.48 191.62L125.67 187.45C125.75 185.56 125.81 183.76 125.84 182.04C125.89 179.98 125.91 177.99 125.91 176.08C127.55 176.1 128.78 176.12 129.61 176.12C130.56 176.12 131.69 176.11 132.99 176.08C132.72 179.15 132.47 182.96 132.25 187.52C132.03 192.08 131.91 196.26 131.91 200.07C130.55 200.05 129.4 200.03 128.47 200.03C127.39 200.05 126.18 200.06 124.85 200.08ZM132.6 189.98L135.62 185.63L137.89 182.14C139.51 182.16 140.73 182.18 141.56 182.18C142.71 182.18 144.07 182.17 145.64 182.14L142.14 186.69C141.32 187.73 140.48 188.86 139.63 190.06C140.45 191.57 142.42 194.92 145.55 200.09C144.18 200.07 142.94 200.05 141.84 200.05C140.71 200.05 139.43 200.06 137.97 200.09L136.88 197.89C136.49 197.13 136.16 196.49 135.88 195.97C135.77 195.76 134.97 194.32 133.47 191.66L132.6 189.98Z" fill="#010101"/>
<path d="M156.61 200.08L156.96 196.39L157.65 183.87L157.84 178.83V176.09C159.66 176.11 161.27 176.13 162.66 176.13C163.66 176.13 165.06 176.12 166.87 176.09L174.37 189.74L175.4 191.74C175.53 189.77 175.67 187.01 175.81 183.46C175.95 179.91 176.02 177.45 176.02 176.09C177.46 176.11 178.61 176.13 179.48 176.13C179.88 176.13 181.02 176.12 182.92 176.09L182.5 181.33L181.71 195.88L181.6 200.08C180.08 200.06 178.65 200.04 177.33 200.04C176.23 200.04 174.7 200.05 172.76 200.08C172.15 198.93 171.7 198.1 171.41 197.58L168.46 192.57C167.49 190.93 166.59 189.36 165.77 187.86C165.23 186.91 164.68 185.87 164.1 184.73L163.72 193.06L163.54 200.08C162.09 200.06 160.98 200.04 160.22 200.04C159.58 200.05 158.38 200.06 156.61 200.08Z" fill="#010101"/>
<path d="M203.33 194.77C203.18 195.47 202.88 197.17 202.45 199.87C201.09 200.14 199.95 200.32 199.02 200.41C198.09 200.5 197.16 200.54 196.21 200.54C194.82 200.54 193.53 200.44 192.36 200.25C191.19 200.06 190.18 199.71 189.33 199.22C188.48 198.73 187.77 198.12 187.19 197.38C186.62 196.65 186.18 195.78 185.88 194.77C185.58 193.76 185.43 192.73 185.43 191.66C185.43 190.16 185.73 188.7 186.33 187.26C186.93 185.83 187.7 184.7 188.64 183.9C189.58 183.1 190.67 182.52 191.9 182.18C193.13 181.84 194.39 181.67 195.68 181.67C197.02 181.67 198.29 181.83 199.5 182.14C200.71 182.45 201.74 182.99 202.58 183.77C203.42 184.55 204.02 185.42 204.38 186.39C204.74 187.36 204.92 188.41 204.92 189.54C204.92 190.21 204.84 190.95 204.69 191.77L192.37 191.79C192.36 191.98 192.35 192.15 192.35 192.3C192.35 193.56 192.8 194.49 193.7 195.08C194.6 195.67 195.7 195.97 197 195.97C197.77 195.97 198.66 195.88 199.65 195.7C200.64 195.52 201.88 195.21 203.33 194.77ZM192.52 189.1H198.32C198.33 188.9 198.34 188.73 198.34 188.59C198.34 187.98 198.23 187.46 198.01 187.03C197.79 186.6 197.48 186.28 197.08 186.08C196.68 185.88 196.22 185.78 195.72 185.78C195.37 185.78 195.03 185.84 194.7 185.95C194.37 186.06 194.08 186.23 193.81 186.44C193.54 186.65 193.33 186.91 193.15 187.19C192.97 187.47 192.85 187.74 192.76 188.01C192.67 188.28 192.61 188.63 192.52 189.1Z" fill="#010101"/>
<path d="M207.1 199.75C207.05 199.23 207.01 198.69 206.96 198.12C206.91 197.55 206.84 196.77 206.73 195.77L206.59 194.5C207.72 194.95 208.7 195.28 209.52 195.49C210.34 195.7 211.09 195.82 211.78 195.82C212.35 195.82 212.82 195.77 213.17 195.66C213.53 195.55 213.79 195.4 213.95 195.2C214.11 195 214.2 194.8 214.2 194.58C214.2 194.39 214.14 194.21 214.02 194.03C213.9 193.85 213.62 193.6 213.19 193.28C212.23 192.58 211.39 191.94 210.66 191.36C209.93 190.78 209.38 190.28 209.01 189.83C208.64 189.38 208.36 188.9 208.17 188.39C207.98 187.87 207.88 187.34 207.88 186.79C207.88 185.82 208.16 184.91 208.71 184.07C209.26 183.23 210.09 182.61 211.17 182.23C212.25 181.85 213.58 181.66 215.13 181.66C216.76 181.66 218.84 181.87 221.37 182.29L221.65 187.21C220.23 186.65 218.87 186.37 217.55 186.37C216.62 186.37 215.95 186.47 215.54 186.66C215.13 186.85 214.92 187.14 214.92 187.53C214.92 187.66 214.94 187.78 214.99 187.9C215.04 188.02 215.12 188.14 215.24 188.27C215.36 188.4 215.52 188.53 215.7 188.67C215.88 188.81 216.32 189.12 217.03 189.61C217.74 190.1 218.28 190.51 218.68 190.82C219.34 191.34 219.84 191.81 220.18 192.25C220.52 192.69 220.79 193.16 220.97 193.66C221.15 194.16 221.24 194.68 221.24 195.23C221.24 196.06 221.04 196.83 220.63 197.52C220.22 198.21 219.62 198.8 218.8 199.27C217.98 199.74 217.1 200.06 216.15 200.25C215.2 200.44 214.22 200.52 213.21 200.52C212.53 200.52 211.68 200.46 210.65 200.34C209.62 200.22 208.46 200.04 207.1 199.75Z" fill="#010101"/>
<path d="M237.7 194.91C237.49 195.89 237.31 196.86 237.16 197.79L236.77 199.93C235.61 200.19 234.7 200.35 234.05 200.42C233.4 200.49 232.77 200.53 232.16 200.53C231.16 200.53 230.28 200.45 229.51 200.28C228.74 200.11 228.09 199.8 227.58 199.35C227.07 198.9 226.71 198.38 226.53 197.79C226.35 197.2 226.25 196.58 226.25 195.93C226.25 195.81 226.26 195.6 226.27 195.31C226.28 195.02 226.32 194.35 226.39 193.31L226.77 187.23H224.03C224.09 186.42 224.14 185.35 224.19 184.03L224.24 182.4H227.15C227.22 181.86 227.31 180.68 227.41 178.87L230.42 178.25C230.97 178.14 232.14 177.87 233.94 177.44C233.86 178.98 233.8 180.63 233.76 182.4H237.77C237.68 184.84 237.63 186.45 237.63 187.23H233.59L233.38 191.62C233.36 192.28 233.34 192.7 233.34 192.89C233.34 193.45 233.4 193.92 233.52 194.3C233.64 194.68 233.86 194.94 234.17 195.11C234.48 195.28 234.82 195.36 235.2 195.36C235.48 195.36 235.77 195.34 236.08 195.3C236.39 195.25 236.93 195.12 237.7 194.91Z" fill="#010101"/>
</svg>
