<svg width="284" height="284" viewBox="0 0 284 284" fill="none" xmlns="http://www.w3.org/2000/svg">
<path d="M52.16 152.24C52.74 146.54 53.09 140.28 53.21 133.43L45.73 133.62L45.82 131.67C45.87 130.63 45.9 129.48 45.93 128.24C49.26 128.26 53.14 128.28 57.56 128.28L61.9 128.26H66.12L68.4 128.24L68.29 129.96C68.24 130.88 68.21 131.65 68.19 132.25C68.17 132.85 68.16 133.31 68.16 133.62C65.66 133.49 63.59 133.43 61.96 133.43H60.73C60.55 135.5 60.42 137.41 60.32 139.17C60.19 141.68 60.09 144.13 60.02 146.5C59.95 148.87 59.91 150.78 59.91 152.25C57.99 152.23 56.75 152.21 56.19 152.21C55.7 152.2 54.35 152.21 52.16 152.24Z" fill="#010101"/>
<path d="M69.4399 152.24L69.9799 144.44L70.1599 139.96C70.1699 139.15 70.1799 138.33 70.1799 137.48C70.1799 136.62 70.1699 135.56 70.1399 134.3C71.5599 134.32 72.6799 134.34 73.5199 134.34C74.4899 134.34 75.6099 134.33 76.8799 134.3L76.8099 136.29C77.2699 135.77 77.6399 135.39 77.9399 135.14C78.2299 134.89 78.5699 134.66 78.9399 134.45C79.3099 134.24 79.7099 134.09 80.1199 133.99C80.5299 133.89 80.9599 133.84 81.3999 133.84C81.8199 133.84 82.2899 133.9 82.8099 134.02C82.8199 135.3 82.8499 136.35 82.8999 137.18L83.0199 139.89C82.3799 139.7 81.7699 139.61 81.2099 139.61C80.5099 139.61 79.8999 139.71 79.3899 139.92C78.8799 140.13 78.4299 140.44 78.0399 140.85C77.6499 141.27 77.3299 141.78 77.0999 142.41C76.8699 143.04 76.6999 144.02 76.6099 145.36C76.5199 146.71 76.4699 148.25 76.4699 149.98C76.4699 150.59 76.4899 151.35 76.5399 152.25C75.3999 152.23 74.2599 152.21 73.1099 152.21C71.9599 152.2 70.7399 152.21 69.4399 152.24Z" fill="#010101"/>
<path d="M86.5801 139.4C86.8001 138.24 86.9401 137.44 87.0001 137C87.0601 136.56 87.1501 135.87 87.2801 134.93C90.6601 134.19 93.5601 133.82 95.9801 133.82C97.3601 133.82 98.6301 133.98 99.7801 134.29C100.93 134.6 101.82 135.1 102.47 135.79C103.12 136.48 103.44 137.47 103.44 138.76C103.44 139.42 103.35 140.89 103.18 143.19C103.01 145.49 102.87 148.5 102.78 152.23C101.63 152.21 100.49 152.19 99.3501 152.19C98.2501 152.19 97.0801 152.2 95.8301 152.23C95.9901 150.94 96.1701 148.28 96.3601 144.25C95.9201 144.46 95.5701 144.61 95.3201 144.71C95.0701 144.8 94.6301 144.94 94.0001 145.13C93.3701 145.32 92.8701 145.48 92.5201 145.6C92.1701 145.72 91.8501 145.89 91.5901 146.09C91.3301 146.29 91.1401 146.49 91.0301 146.71C90.9201 146.92 90.8601 147.16 90.8601 147.41C90.8601 147.81 91.0201 148.15 91.3301 148.43C91.6401 148.71 92.1501 148.85 92.8401 148.85C93.0901 148.85 93.3501 148.83 93.6301 148.79C93.9101 148.75 94.3001 148.65 94.7901 148.48C94.4501 149.38 94.0501 150.7 93.5801 152.44C92.5701 152.6 91.6201 152.69 90.7101 152.69C89.2601 152.69 88.0501 152.49 87.0801 152.08C86.1101 151.67 85.3701 151.02 84.8501 150.12C84.3301 149.22 84.0701 148.32 84.0701 147.41C84.0701 146.86 84.1701 146.32 84.3601 145.79C84.5501 145.26 84.8601 144.75 85.2701 144.24C85.6801 143.74 86.1601 143.31 86.7101 142.95C87.2601 142.59 88.0101 142.26 88.9701 141.94C89.9301 141.62 91.1301 141.32 92.6001 141.04C93.2101 140.92 93.7701 140.8 94.2801 140.66C94.7901 140.52 95.1501 140.41 95.3701 140.31C95.5901 140.21 95.7601 140.09 95.9001 139.96C96.0301 139.83 96.1301 139.68 96.1901 139.54C96.2501 139.4 96.2801 139.24 96.2801 139.07C96.2801 138.62 96.0901 138.28 95.7201 138.04C95.3401 137.8 94.7901 137.68 94.0701 137.68C92.0301 137.7 89.5401 138.27 86.5801 139.4Z" fill="#010101"/>
<path d="M121.7 146.63C121.64 147.1 121.5 147.96 121.28 149.21L120.82 152.02C118.98 152.47 117.18 152.69 115.42 152.69C114.14 152.69 113.02 152.56 112.06 152.3C110.92 152 109.9 151.46 109 150.68C108.07 149.88 107.4 148.94 106.98 147.85C106.48 146.57 106.22 145.14 106.22 143.56C106.22 142.11 106.47 140.71 106.96 139.36C107.45 138.01 108.18 136.9 109.14 136.03C110.1 135.16 111.17 134.57 112.34 134.27C113.51 133.97 114.81 133.82 116.22 133.82C117.05 133.82 117.89 133.86 118.73 133.95C119.57 134.04 120.62 134.23 121.86 134.52L121.9 134.92C121.94 135.34 121.96 135.77 121.98 136.21C122 136.65 122.04 137.34 122.09 138.29L122.2 139.85C120.52 139.26 119.04 138.97 117.75 138.97C116.82 138.97 116.01 139.15 115.32 139.51C114.63 139.87 114.11 140.38 113.77 141.06C113.43 141.74 113.27 142.52 113.27 143.41C113.27 144.31 113.42 145.07 113.72 145.68C114.02 146.29 114.5 146.75 115.15 147.05C115.8 147.35 116.53 147.51 117.31 147.51C117.71 147.51 118.18 147.47 118.73 147.39C119.28 147.31 119.75 147.22 120.15 147.12C120.55 147.02 121.08 146.86 121.7 146.63Z" fill="#010101"/>
<path d="M124.85 152.24C125.01 150.74 125.13 149.52 125.2 148.58C125.29 147.3 125.39 145.7 125.48 143.78L125.67 139.61C125.75 137.72 125.81 135.92 125.84 134.2C125.89 132.14 125.91 130.15 125.91 128.24C127.55 128.26 128.78 128.28 129.61 128.28C130.56 128.28 131.69 128.27 132.99 128.24C132.72 131.31 132.47 135.12 132.25 139.68C132.03 144.24 131.91 148.42 131.91 152.23C130.55 152.21 129.41 152.19 128.47 152.19C127.39 152.2 126.18 152.21 124.85 152.24ZM132.6 142.14L135.62 137.79L137.89 134.3C139.51 134.32 140.73 134.34 141.56 134.34C142.71 134.34 144.07 134.33 145.64 134.3L142.14 138.85C141.32 139.89 140.48 141.02 139.63 142.22C140.45 143.73 142.42 147.08 145.55 152.25C144.18 152.23 142.94 152.21 141.84 152.21C140.71 152.21 139.43 152.22 137.97 152.25L136.88 150.05C136.49 149.29 136.16 148.65 135.88 148.13C135.77 147.92 134.97 146.48 133.47 143.82L132.6 142.14Z" fill="#010101"/>
<path d="M156.61 152.24L156.96 148.55L157.65 136.03L157.84 130.99V128.25C159.66 128.27 161.27 128.29 162.66 128.29C163.66 128.29 165.06 128.28 166.87 128.25L174.37 141.9L175.4 143.9C175.53 141.93 175.67 139.17 175.81 135.62C175.95 132.07 176.02 129.61 176.02 128.25C177.46 128.27 178.61 128.29 179.48 128.29C179.88 128.29 181.02 128.28 182.92 128.25L182.5 133.49L181.71 148.04L181.6 152.24C180.08 152.22 178.65 152.2 177.33 152.2C176.23 152.2 174.7 152.21 172.76 152.24C172.15 151.09 171.7 150.26 171.41 149.74L168.46 144.73C167.49 143.09 166.59 141.52 165.77 140.02C165.23 139.07 164.68 138.03 164.1 136.89L163.72 145.22L163.54 152.24C162.09 152.22 160.98 152.2 160.22 152.2C159.58 152.2 158.38 152.21 156.61 152.24Z" fill="url(#paint0_linear_5796_727)"/>
<path d="M203.33 146.93C203.18 147.63 202.88 149.33 202.45 152.03C201.09 152.3 199.95 152.48 199.02 152.57C198.09 152.66 197.16 152.7 196.21 152.7C194.82 152.7 193.53 152.6 192.36 152.41C191.19 152.22 190.18 151.87 189.33 151.38C188.48 150.89 187.77 150.28 187.19 149.54C186.62 148.81 186.18 147.94 185.88 146.93C185.58 145.92 185.43 144.89 185.43 143.82C185.43 142.32 185.73 140.86 186.33 139.42C186.93 137.99 187.7 136.86 188.64 136.06C189.58 135.26 190.67 134.68 191.9 134.34C193.13 134 194.39 133.83 195.68 133.83C197.02 133.83 198.29 133.99 199.5 134.3C200.71 134.61 201.74 135.15 202.58 135.93C203.42 136.71 204.02 137.58 204.38 138.55C204.74 139.52 204.92 140.57 204.92 141.7C204.92 142.37 204.84 143.11 204.69 143.93L192.37 143.95C192.36 144.14 192.35 144.31 192.35 144.46C192.35 145.72 192.8 146.65 193.7 147.24C194.6 147.83 195.7 148.13 197 148.13C197.77 148.13 198.66 148.04 199.65 147.86C200.64 147.68 201.88 147.36 203.33 146.93ZM192.52 141.25H198.32C198.33 141.05 198.34 140.88 198.34 140.74C198.34 140.13 198.23 139.61 198.01 139.18C197.79 138.75 197.48 138.43 197.08 138.23C196.68 138.03 196.22 137.93 195.72 137.93C195.37 137.93 195.03 137.99 194.7 138.1C194.37 138.21 194.08 138.38 193.81 138.59C193.54 138.8 193.33 139.06 193.15 139.34C192.97 139.62 192.85 139.89 192.76 140.16C192.67 140.43 192.61 140.78 192.52 141.25Z" fill="url(#paint1_linear_5796_727)"/>
<path d="M207.1 151.9C207.05 151.38 207.01 150.84 206.96 150.27C206.91 149.7 206.84 148.92 206.73 147.92L206.59 146.65C207.72 147.1 208.7 147.43 209.52 147.64C210.34 147.85 211.09 147.97 211.78 147.97C212.35 147.97 212.82 147.92 213.17 147.81C213.53 147.7 213.79 147.55 213.95 147.35C214.11 147.15 214.2 146.95 214.2 146.73C214.2 146.54 214.14 146.36 214.02 146.18C213.9 146 213.62 145.75 213.19 145.43C212.23 144.73 211.39 144.09 210.66 143.51C209.93 142.93 209.38 142.43 209.01 141.98C208.64 141.53 208.36 141.05 208.17 140.54C207.98 140.02 207.88 139.49 207.88 138.94C207.88 137.97 208.16 137.06 208.71 136.22C209.26 135.38 210.09 134.76 211.17 134.38C212.25 134 213.58 133.81 215.13 133.81C216.76 133.81 218.84 134.02 221.37 134.44L221.65 139.36C220.23 138.8 218.87 138.52 217.55 138.52C216.62 138.52 215.95 138.62 215.54 138.81C215.13 139 214.92 139.29 214.92 139.68C214.92 139.81 214.94 139.93 214.99 140.05C215.04 140.17 215.12 140.29 215.24 140.42C215.36 140.55 215.52 140.68 215.7 140.82C215.88 140.96 216.32 141.27 217.03 141.76C217.74 142.25 218.28 142.66 218.68 142.97C219.34 143.49 219.84 143.96 220.18 144.4C220.52 144.84 220.79 145.31 220.97 145.81C221.15 146.31 221.24 146.83 221.24 147.38C221.24 148.21 221.04 148.98 220.63 149.67C220.22 150.36 219.62 150.95 218.8 151.42C217.98 151.89 217.1 152.21 216.15 152.4C215.2 152.59 214.22 152.67 213.21 152.67C212.53 152.67 211.68 152.61 210.65 152.49C209.62 152.37 208.46 152.19 207.1 151.9Z" fill="url(#paint2_linear_5796_727)"/>
<path d="M237.7 147.07C237.49 148.05 237.31 149.02 237.16 149.95L236.77 152.09C235.61 152.35 234.7 152.51 234.05 152.58C233.4 152.65 232.77 152.69 232.16 152.69C231.16 152.69 230.28 152.61 229.51 152.44C228.74 152.27 228.09 151.96 227.58 151.51C227.07 151.06 226.71 150.54 226.53 149.95C226.35 149.36 226.25 148.74 226.25 148.09C226.25 147.97 226.26 147.76 226.27 147.47C226.28 147.18 226.32 146.51 226.39 145.47L226.77 139.39H224.03C224.09 138.58 224.14 137.51 224.19 136.19L224.24 134.56H227.15C227.22 134.02 227.31 132.84 227.41 131.03L230.42 130.41C230.97 130.3 232.14 130.03 233.94 129.6C233.86 131.14 233.8 132.79 233.76 134.56H237.77C237.68 137 237.63 138.61 237.63 139.39H233.59L233.38 143.78C233.36 144.44 233.34 144.86 233.34 145.05C233.34 145.61 233.4 146.08 233.52 146.46C233.64 146.84 233.86 147.1 234.17 147.27C234.48 147.44 234.82 147.52 235.2 147.52C235.48 147.52 235.77 147.5 236.08 147.46C236.39 147.4 236.93 147.28 237.7 147.07Z" fill="url(#paint3_linear_5796_727)"/>
<defs>
<linearGradient id="paint0_linear_5796_727" x1="155.952" y1="137.38" x2="183.502" y2="143.079" gradientUnits="userSpaceOnUse">
<stop stop-color="#7C2B8B"/>
<stop offset="1" stop-color="#473087"/>
</linearGradient>
<linearGradient id="paint1_linear_5796_727" x1="185.739" y1="141.237" x2="204.46" y2="145.11" gradientUnits="userSpaceOnUse">
<stop stop-color="#7C2B8B"/>
<stop offset="1" stop-color="#473087"/>
</linearGradient>
<linearGradient id="paint2_linear_5796_727" x1="207.194" y1="141.727" x2="221.894" y2="144.769" gradientUnits="userSpaceOnUse">
<stop stop-color="#7C2B8B"/>
<stop offset="1" stop-color="#473087"/>
</linearGradient>
<linearGradient id="paint3_linear_5796_727" x1="223.26" y1="139.265" x2="238.759" y2="142.472" gradientUnits="userSpaceOnUse">
<stop stop-color="#7C2B8B"/>
<stop offset="1" stop-color="#473087"/>
</linearGradient>
</defs>
</svg>
